<svg width="19" height="19" viewBox="0 0 19 19" fill="none" xmlns="http://www.w3.org/2000/svg">
<path d="M11.919 11.0021C13.1348 11.0021 14.3008 11.4851 15.1605 12.3448C16.0202 13.2045 16.5032 14.3705 16.5032 15.5863V16.5032C16.5032 16.9895 16.31 17.4559 15.9661 17.7998C15.6222 18.1437 15.1558 18.3368 14.6695 18.3368H1.83368C1.34736 18.3368 0.880956 18.1437 0.537074 17.7998C0.193191 17.4559 0 16.9895 0 16.5032V15.5863C0 14.3705 0.482978 13.2045 1.34268 12.3448C2.20239 11.4851 3.3684 11.0021 4.58421 11.0021H11.919ZM15.5863 5.50105C15.8295 5.50105 16.0627 5.59765 16.2346 5.76959C16.4066 5.94153 16.5032 6.17474 16.5032 6.4179V7.33474H17.42C17.6632 7.33474 17.8964 7.43134 18.0683 7.60328C18.2403 7.77522 18.3368 8.00842 18.3368 8.25158C18.3368 8.49474 18.2403 8.72795 18.0683 8.89989C17.8964 9.07183 17.6632 9.16842 17.42 9.16842H16.5032V10.0853C16.5032 10.3284 16.4066 10.5616 16.2346 10.7336C16.0627 10.9055 15.8295 11.0021 15.5863 11.0021C15.3432 11.0021 15.11 10.9055 14.938 10.7336C14.7661 10.5616 14.6695 10.3284 14.6695 10.0853V9.16842H13.7526C13.5095 9.16842 13.2763 9.07183 13.1043 8.89989C12.9324 8.72795 12.8358 8.49474 12.8358 8.25158C12.8358 8.00842 12.9324 7.77522 13.1043 7.60328C13.2763 7.43134 13.5095 7.33474 13.7526 7.33474H14.6695V6.4179C14.6695 6.17474 14.7661 5.94153 14.938 5.76959C15.11 5.59765 15.3432 5.50105 15.5863 5.50105ZM8.25158 0C9.46739 0 10.6334 0.482978 11.4931 1.34268C12.3528 2.20239 12.8358 3.3684 12.8358 4.58421C12.8358 5.80002 12.3528 6.96603 11.4931 7.82574C10.6334 8.68545 9.46739 9.16842 8.25158 9.16842C7.03577 9.16842 5.86976 8.68545 5.01005 7.82574C4.15035 6.96603 3.66737 5.80002 3.66737 4.58421C3.66737 3.3684 4.15035 2.20239 5.01005 1.34268C5.86976 0.482978 7.03577 0 8.25158 0Z" fill="#878787"/>
</svg>
