<svg width="18" height="17" viewBox="0 0 18 17" fill="none" xmlns="http://www.w3.org/2000/svg">
<path d="M1 16.5885C0.716667 16.5885 0.479333 16.4925 0.288 16.3005C0.0966668 16.1085 0.000666667 15.8711 0 15.5885V14.5885C0 14.3051 0.0960001 14.0678 0.288 13.8765C0.48 13.6851 0.717333 13.5891 1 13.5885C1.28267 13.5878 1.52033 13.6838 1.713 13.8765C1.90567 14.0691 2.00133 14.3065 2 14.5885V15.5885C2 15.8718 1.904 16.1095 1.712 16.3015C1.52 16.4935 1.28267 16.5891 1 16.5885ZM5 16.5885C4.71667 16.5885 4.47933 16.4925 4.288 16.3005C4.09667 16.1085 4.00067 15.8711 4 15.5885V10.0885C4 9.80513 4.096 9.56779 4.288 9.37646C4.48 9.18513 4.71733 9.08913 5 9.08846C5.28267 9.08779 5.52033 9.18379 5.713 9.37646C5.90567 9.56913 6.00133 9.80646 6 10.0885V15.5885C6 15.8718 5.904 16.1095 5.712 16.3015C5.52 16.4935 5.28267 16.5891 5 16.5885ZM9 16.5885C8.71667 16.5885 8.47933 16.4925 8.288 16.3005C8.09667 16.1085 8.00067 15.8711 8 15.5885V12.0885C8 11.8051 8.096 11.5678 8.288 11.3765C8.48 11.1851 8.71733 11.0891 9 11.0885C9.28267 11.0878 9.52033 11.1838 9.713 11.3765C9.90567 11.5691 10.0013 11.8065 10 12.0885V15.5885C10 15.8718 9.904 16.1095 9.712 16.3015C9.52 16.4935 9.28267 16.5891 9 16.5885ZM13 16.5885C12.7167 16.5885 12.4793 16.4925 12.288 16.3005C12.0967 16.1085 12.0007 15.8711 12 15.5885V10.5885C12 10.3051 12.096 10.0678 12.288 9.87646C12.48 9.68513 12.7173 9.58913 13 9.58846C13.2827 9.58779 13.5203 9.68379 13.713 9.87646C13.9057 10.0691 14.0013 10.3065 14 10.5885V15.5885C14 15.8718 13.904 16.1095 13.712 16.3015C13.52 16.4935 13.2827 16.5891 13 16.5885ZM17 16.5885C16.7167 16.5885 16.4793 16.4925 16.288 16.3005C16.0967 16.1085 16.0007 15.8711 16 15.5885V6.58846C16 6.30513 16.096 6.06779 16.288 5.87646C16.48 5.68513 16.7173 5.58913 17 5.58846C17.2827 5.58779 17.5203 5.68379 17.713 5.87646C17.9057 6.06913 18.0013 6.30646 18 6.58846V15.5885C18 15.8718 17.904 16.1095 17.712 16.3015C17.52 16.4935 17.2827 16.5891 17 16.5885ZM11 7.56346C10.7333 7.56346 10.479 7.51346 10.237 7.41346C9.995 7.31346 9.77433 7.17179 9.575 6.98846L7 4.41346L1.7 9.71346C1.5 9.91346 1.26267 10.0095 0.988 10.0015C0.713333 9.99346 0.475667 9.88913 0.275 9.68846C0.0916668 9.48846 0.00433335 9.25113 0.013 8.97646C0.0216667 8.70179 0.117333 8.47246 0.3 8.28846L5.575 3.01346C5.775 2.81346 5.996 2.66779 6.238 2.57646C6.48 2.48513 6.734 2.43913 7 2.43846C7.266 2.43779 7.52433 2.48379 7.775 2.57646C8.02567 2.66913 8.24233 2.8148 8.425 3.01346L11 5.58846L16.3 0.288461C16.5 0.0884612 16.7377 -0.00753846 17.013 0.00046154C17.2883 0.00846154 17.5257 0.112795 17.725 0.313461C17.9083 0.513461 17.996 0.751128 17.988 1.02646C17.98 1.3018 17.884 1.53079 17.7 1.71346L12.425 6.98846C12.2417 7.17179 12.025 7.31346 11.775 7.41346C11.525 7.51346 11.2667 7.56346 11 7.56346Z" fill="#878787"/>
</svg>
