<svg width="22" height="18" viewBox="0 0 22 18" fill="none" xmlns="http://www.w3.org/2000/svg">
<path d="M18.3333 1.575V14.85C18.3331 14.9625 18.3758 15.0709 18.453 15.154C18.5301 15.2371 18.6362 15.2888 18.7503 15.299C18.8643 15.3091 18.9781 15.277 19.0693 15.2089C19.1604 15.1408 19.2223 15.0417 19.2427 14.931L19.25 14.85V2.7H20.3958C20.7984 2.70001 21.1863 2.84865 21.4824 3.11641C21.7786 3.38417 21.9614 3.75147 21.9945 4.1454L22 4.275V15.075C22 15.8221 21.7089 16.5409 21.1863 17.084C20.6637 17.6271 19.9492 17.9532 19.1895 17.9955L19.0208 18H2.97917C2.21821 18 1.48607 17.7142 0.932955 17.2011C0.379836 16.688 0.0476655 15.9865 0.00458344 15.2406L0 15.075V1.575C1.50375e-05 1.17973 0.151407 0.798914 0.424123 0.508148C0.69684 0.217382 1.07094 0.0379252 1.47217 0.00540004L1.60417 0H16.7292C17.1318 1.47641e-05 17.5196 0.148654 17.8158 0.416412C18.1119 0.68417 18.2947 1.05147 18.3278 1.4454L18.3333 1.575ZM7.10142 8.1036H4.8125C4.40991 8.10361 4.02204 8.25225 3.72589 8.52001C3.42974 8.78777 3.24696 9.15507 3.21383 9.549L3.20833 9.6786V11.925C3.20835 12.3203 3.35974 12.7011 3.63246 12.9919C3.90517 13.2826 4.27927 13.4621 4.6805 13.4946L4.8125 13.5H7.10142C7.50415 13.5 7.89214 13.3512 8.18832 13.0833C8.48449 12.8153 8.66717 12.4478 8.70008 12.0537L8.70467 11.925V9.6786C8.70488 9.28317 8.55359 8.90214 8.28085 8.61118C8.00811 8.32022 7.63388 8.14064 7.2325 8.1081L7.10142 8.1036ZM14.4375 12.15H11.2292L11.1357 12.1563C10.9711 12.1785 10.8203 12.2585 10.7112 12.3814C10.602 12.5043 10.5419 12.6619 10.5419 12.825C10.5419 12.9881 10.602 13.1457 10.7112 13.2686C10.8203 13.3915 10.9711 13.4715 11.1357 13.4937L11.2292 13.5H14.4375L14.531 13.4937C14.6956 13.4715 14.8463 13.3915 14.9555 13.2686C15.0647 13.1457 15.1248 12.9881 15.1248 12.825C15.1248 12.6619 15.0647 12.5043 14.9555 12.3814C14.8463 12.2585 14.6956 12.1785 14.531 12.1563L14.4375 12.15ZM4.8125 9.4536H7.10142C7.15292 9.45364 7.20291 9.47071 7.24333 9.50206C7.28374 9.53341 7.31222 9.57721 7.32417 9.6264L7.33058 9.6786V11.925C7.3305 11.9757 7.31298 12.0249 7.28087 12.0646C7.24876 12.1043 7.20394 12.1321 7.15367 12.1437L7.10142 12.15H4.8125C4.76087 12.1499 4.71078 12.1327 4.67035 12.1012C4.62992 12.0697 4.60152 12.0257 4.58975 11.9763L4.58333 11.925V9.6786C4.58321 9.62775 4.60064 9.57837 4.63276 9.53849C4.66489 9.49861 4.70983 9.47059 4.76025 9.459L4.8125 9.4536ZM14.4375 8.1036H11.2292L11.1357 8.109C10.9704 8.1305 10.8188 8.21021 10.7089 8.33331C10.599 8.4564 10.5385 8.61449 10.5385 8.77815C10.5385 8.94181 10.599 9.0999 10.7089 9.22299C10.8188 9.34609 10.9704 9.4258 11.1357 9.4473L11.2292 9.4536H14.4375L14.531 9.4473C14.6962 9.4258 14.8479 9.34609 14.9578 9.22299C15.0676 9.0999 15.1282 8.94181 15.1282 8.77815C15.1282 8.61449 15.0676 8.4564 14.9578 8.33331C14.8479 8.21021 14.6962 8.1305 14.531 8.109L14.4375 8.1036ZM14.4375 4.0473H3.89583L3.80233 4.0536C3.63778 4.07583 3.48699 4.1558 3.37783 4.27872C3.26868 4.40165 3.20854 4.55922 3.20854 4.7223C3.20854 4.88538 3.26868 5.04295 3.37783 5.16588C3.48699 5.2888 3.63778 5.36877 3.80233 5.391L3.89583 5.3973H14.4375L14.531 5.391C14.6956 5.36877 14.8463 5.2888 14.9555 5.16588C15.0647 5.04295 15.1248 4.88538 15.1248 4.7223C15.1248 4.55922 15.0647 4.40165 14.9555 4.27872C14.8463 4.1558 14.6956 4.07583 14.531 4.0536L14.4375 4.0473Z" fill="#878787"/>
</svg>
