<svg width="18" height="18" viewBox="0 0 18 18" fill="none" xmlns="http://www.w3.org/2000/svg">
<path d="M9 14.4C9.28333 14.4 9.521 14.3136 9.713 14.1408C9.905 13.968 10.0007 13.7544 10 13.5C9.99933 13.2456 9.90333 13.032 9.712 12.8592C9.52067 12.6864 9.28333 12.6 9 12.6C8.71667 12.6 8.47933 12.6864 8.288 12.8592C8.09667 13.032 8.00067 13.2456 8 13.5C7.99933 13.7544 8.09533 13.9683 8.288 14.1417C8.48067 14.3151 8.718 14.4012 9 14.4ZM8 10.8H10V5.4H8V10.8ZM2 18C1.45 18 0.979333 17.8239 0.588 17.4717C0.196667 17.1195 0.000666667 16.6956 0 16.2V3.6C0 3.105 0.196 2.6814 0.588 2.3292C0.98 1.977 1.45067 1.8006 2 1.8H6.2C6.41667 1.26 6.77933 0.825 7.288 0.495C7.79667 0.165 8.36733 0 9 0C9.63267 0 10.2037 0.165 10.713 0.495C11.2223 0.825 11.5847 1.26 11.8 1.8H16C16.55 1.8 17.021 1.9764 17.413 2.3292C17.805 2.682 18.0007 3.1056 18 3.6V16.2C18 16.695 17.8043 17.1189 17.413 17.4717C17.0217 17.8245 16.5507 18.0006 16 18H2ZM9 2.925C9.21667 2.925 9.396 2.8611 9.538 2.7333C9.68 2.6055 9.75067 2.4444 9.75 2.25C9.74933 2.0556 9.67833 1.8945 9.537 1.7667C9.39567 1.6389 9.21667 1.575 9 1.575C8.78333 1.575 8.60433 1.6389 8.463 1.7667C8.32167 1.8945 8.25067 2.0556 8.25 2.25C8.24933 2.4444 8.32033 2.6058 8.463 2.7342C8.60567 2.8626 8.78467 2.9262 9 2.925Z" fill="#878787"/>
</svg>
